<?xml version="1.0" ?><svg id="Layer_1" style="enable-background:new 0 0 179.749 149.528;" version="1.1" viewBox="0 0 179.749 149.528" xml:space="preserve" xmlns="http://www.w3.org/2000/svg" xmlns:xlink="http://www.w3.org/1999/xlink"><g><ellipse fill="white" cx="153.298" cy="22.501" rx="22.495" ry="22.494" transform="matrix(0.2345 -0.9721 0.9721 0.2345 95.4743 166.2467)"/>

<path fill="white" d="M10.482,147.338c9.366,1.534,18.299,2.19,26.707,2.19c47.889-0.07,78.21-20.951,79.428-21.748   c0.668-0.462,1.271-0.982,1.819-1.541c0.709-0.487,1.418-1.004,2.129-1.564c7.093-6.528,12.51-12.269,17.025-18.267   c-1.376-3.51-2.633-7.115-3.757-10.822c-4.41-14.596-5.203-25.512-5.317-27.552c-0.127-2.73,0.793-5.288,2.59-7.263   c1.797-1.975,4.258-3.131,6.926-3.256c0.161-0.008,0.319-0.013,0.479-0.013c5.344,0,9.728,4.187,9.979,9.53l0.009,0.122   l0.009,0.142c0.021,0.273,0.049,0.653,0.097,1.152c0.092,0.984,0.268,2.594,0.584,4.694c0.356,2.35,0.927,5.555,1.82,9.33   c0.495-1.159,0.99-2.349,1.487-3.573c5.741-14.378-0.611-25.969-8.467-29.927c-7.856-3.958-18.476,2.618-22.796,12.03   c-7.059,12.393-11.554,39.808-25.828,43.58c-6.795,1.795-10.426,6.538-11.134,11.438c-11.366,4.295-27.547,8.538-47.082,8.507   c-7.111,0-14.679-0.553-22.667-1.86c-6.813-1.116-13.24,3.502-14.355,10.315C-0.949,139.795,3.668,146.222,10.482,147.338z"/>

<path fill="white" d="M146.612,68.638c-0.052-0.546-0.082-0.952-0.101-1.207c-0.009-0.129-0.014-0.219-0.018-0.271   c-0.002-0.034-0.002-0.034-0.002-0.034c-0.209-4.413-3.955-7.823-8.366-7.614c-4.415,0.208-7.822,3.953-7.614,8.366h-0.002   c0.028,0.466,0.575,11.694,5.239,27.129c0.912,3.01,1.988,6.188,3.245,9.474c5.179,13.542,13.523,28.982,27.074,42.655   c1.564,1.577,3.621,2.366,5.68,2.366c2.037,0,4.074-0.773,5.635-2.321c3.137-3.111,3.158-8.174,0.047-11.311   c-14.41-14.509-22.224-31.784-26.366-45.497c-0.513-1.693-0.968-3.329-1.374-4.897c-1.236-4.771-2.007-8.903-2.478-12.034   C146.898,71.363,146.715,69.724,146.612,68.638z"/></g></svg>