<?xml version="1.0" ?><svg height="64" viewBox="0 0 64 64" width="64" xmlns="http://www.w3.org/2000/svg"><defs><style>.cls-1{fill:none;stroke:white;stroke-linecap:round;stroke-linejoin:round;stroke-width:3px;}</style></defs><title/><g id="icons"><path class="cls-1" d="M51.71,11.21c-.28,0-.57,0-.86,0a26.63,26.63,0,0,1-6-.8A43.61,43.61,0,0,1,31.77,4.64a.8.8,0,0,0-.37-.14.6.6,0,0,0-.38.14C28.76,6.75,16.32,14,6.79,10.1c0,0-1.92,18.82,4,30.73C16.4,52,27.67,57.53,32.09,59.5A36.77,36.77,0,0,0,53.21,40.83c5.75-12,4.06-30.73,4.06-30.73"/><path class="cls-1" d="M33.39,40.44a6.88,6.88,0,0,1-9.72,0h0a6.88,6.88,0,0,1,0-9.72L33.39,21a6.86,6.86,0,0,1,9.72,0h0a6.87,6.87,0,0,1,0,9.71Z"/><line class="cls-1" x1="28.94" x2="37.84" y1="26.27" y2="35.18"/><path class="cls-1" d="M40.13,24.32S37.77,23,35.55,26"/></g></svg>