<?xml version="1.0" ?><svg data-name="Ebene 1" id="Ebene_1" viewBox="0 0 100 100" xmlns="http://www.w3.org/2000/svg"><title/>
<path fill="white" d="M50,15A35,35,0,1,1,15,50,35,35,0,0,1,50,15m0-5A40,40,0,1,0,90,50,40,40,0,0,0,50,10Z"/>

<path fill="white" d="M35,33.5c-3,0-5.5,2.92-5.5,6.5a7.37,7.37,0,0,0,.69,3.13,1.5,1.5,0,0,0,2.72,0A2.49,2.49,0,0,1,35,41.5a2.49,2.49,0,0,1,2.09,1.63,1.5,1.5,0,0,0,2.72,0A7.37,7.37,0,0,0,40.5,40C40.5,36.42,38,33.5,35,33.5Z"/>

<path fill="white" d="M65,33.5c-3,0-5.5,2.92-5.5,6.5a7.36,7.36,0,0,0,.7,3.13,1.5,1.5,0,0,0,2.72,0,2.15,2.15,0,0,1,4.17,0,1.5,1.5,0,0,0,2.72,0A7.36,7.36,0,0,0,70.5,40C70.5,36.42,68,33.5,65,33.5Z"/>

<path d="M50,68.5a21.56,21.56,0,0,1-15.21-6.23,2.5,2.5,0,0,1,3.51-3.56,16.69,16.69,0,0,0,23.4,0,2.5,2.5,0,0,1,3.51,3.56A21.55,21.55,0,0,1,50,68.5Z" fill="white" stroke="white"/></svg>