<?xml version="1.0" ?><svg viewBox="0 0 512 512" xmlns="http://www.w3.org/2000/svg"><title/><path d="M267.8,504.2V284.9C181.3,294,134.6,314.8,133,331.1c-.6,6.4,5.7,29.6,113.5,61.6,9.9,2.9,5.5,18-4.5,15.1-86.5-25.7-127.3-51.2-124.7-78.1,4-41,108.3-56,150.5-60.4v-142c-50.3,24.9-98.7,58.6-95.5,74.3.8,3.7,8.2,16.1,72.2,18.2,10.4.3,9.9,16.1-.5,15.7-55.4-1.8-83.1-11.5-87-30.7-7.7-37.4,94.3-87.2,115.2-97a7.9,7.9,0,0,1,7,0c21,9.8,122.9,59.6,115.2,97-3.9,19.2-31.6,28.9-87,30.7-10.4.4-10.9-15.4-.5-15.7,63.9-2,71.4-14.4,72.2-18.2,3.2-15.6-45.2-49.3-95.5-74.3V504.2C283.5,514.6,267.8,514.6,267.8,504.2Zm7.9-413.1a45.5,45.5,0,1,1,45.2-45.5A45.4,45.4,0,0,1,275.7,91.1Zm0-75.4a29.8,29.8,0,1,0,29.5,29.8A29.7,29.7,0,0,0,275.7,15.7Z" fill="white" stroke="white" stroke-width="10"/></svg>