<?xml version="1.0" ?><svg viewBox="0 0 25 25" xmlns="http://www.w3.org/2000/svg"><g id="Circulation">
  
  <path fill="white" d="M6.4,13.892l-.914,2.05,0,0A.424.424,0,0,1,5.446,16a.536.536,0,0,1-.028.053c-.007.008-.017.011-.024.019a.661.661,0,0,1-.122.095c-.018.01-.034.021-.052.029s-.012.009-.019.012a.518.518,0,0,1-.171.03.51.51,0,0,1-.187-.04s-.011,0-.016,0-.024-.019-.038-.026l-.019-.011a.33.33,0,0,1-.032-.018c-.008,0-.016-.007-.024-.013L2.971,14.712a.5.5,0,1,1,.631-.776l.551.447A9.084,9.084,0,0,1,11.607,3.868a.5.5,0,1,1,.168.986,8.087,8.087,0,0,0-6.63,9.4l.342-.767a.5.5,0,0,1,.914.407ZM19.875,6.734a9,9,0,0,0-3.618-2.446l.663-.253a.5.5,0,0,0-.357-.934l-2.1.8a.49.49,0,0,0-.048.031.411.411,0,0,0-.06.028l-.007,0c-.01.008-.015.019-.024.027a.429.429,0,0,0-.062.066.6.6,0,0,0-.042.046c-.007.012-.011.026-.017.038a.454.454,0,0,0-.032.087l0,0a.414.414,0,0,0-.019.049v0c0,.012,0,.024,0,.036a.466.466,0,0,0,0,.091c0,.014,0,.027,0,.04s0,.019,0,.028a.331.331,0,0,0,.015.033c0,.011,0,.023,0,.034s.017.016.022.027a.494.494,0,0,0,.039.084l0,0,1.319,1.817a.5.5,0,1,0,.809-.588l-.495-.681A8.09,8.09,0,0,1,20.7,15.652a.5.5,0,1,0,.937.348A9.076,9.076,0,0,0,19.875,6.734Zm.27,11.476a.645.645,0,0,0-.021-.062c-.006-.011-.015-.02-.022-.031a.472.472,0,0,0-.061-.073h0A.528.528,0,0,0,20.005,18l0,0a.345.345,0,0,0-.032-.02.392.392,0,0,0-.076-.04.5.5,0,0,0-.1-.039.247.247,0,0,0-.029-.01.541.541,0,0,1-.125,0h-.006l-2.233.234a.5.5,0,0,0,.051,1,.453.453,0,0,0,.052,0l.838-.088a7.99,7.99,0,0,1-3.529,1.727,8.089,8.089,0,0,1-7.927-2.767.5.5,0,1,0-.769.639,9.088,9.088,0,0,0,12.833,1.2l-.112.7a.5.5,0,0,0,.415.572.559.559,0,0,0,.08.006.5.5,0,0,0,.494-.421l.353-2.217a.591.591,0,0,0,0-.06c0-.022.007-.044.005-.067v0a.3.3,0,0,0-.01-.032A.455.455,0,0,0,20.145,18.21Z"/></g></svg>