<?xml version="1.0" ?><svg fill="white" xmlns="http://www.w3.org/2000/svg" id="Stress_Relief" data-name="Stress Relief" viewBox="0 0 64 64"><g><path d="m10.43,34.73c-1.59-3-2.43-6.36-2.43-9.73,0-5.62,2.23-10.9,6.29-14.87.4-.39.4-1.02.02-1.41-.39-.4-1.02-.4-1.41-.02-4.44,4.35-6.89,10.13-6.89,16.29,0,3.7.92,7.38,2.66,10.66l5.85,11.35c1.6,3.11,1.53,6.78-.19,9.83l-2.08,3.67c-.27.48-.1,1.09.38,1.36.16.09.33.13.49.13.35,0,.69-.18.87-.51l2.08-3.67c2.05-3.63,2.14-8.02.23-11.73l-5.86-11.36Z"/><path d="m48.27,49.72c-.47-.29-1.08-.15-1.38.32-.79,1.26-1.69,2.35-2.66,3.23-.52.47-1.22.73-1.97.73h-3.69c-1.11,0-2.02.9-2.02,2v5c0,.55.45,1,1,1s1-.45,1-1l.02-5h3.69c1.24,0,2.42-.44,3.31-1.25,1.11-1,2.13-2.23,3.02-3.65.29-.47.15-1.08-.32-1.38Z"/><path d="m57.64,35.85l-4.44-6.29c-.42-.6-.61-1.33-.52-2.07.09-.79.14-1.62.14-2.49,0-12.68-10.5-23-23.4-23-4.77,0-9.36,1.4-13.27,4.04-.46.31-.58.93-.27,1.39.31.46.93.58,1.39.27,3.58-2.42,7.78-3.7,12.15-3.7,11.8,0,21.4,9.42,21.4,21,0,.79-.04,1.55-.12,2.27-.14,1.22.17,2.45.88,3.45l4.42,6.28h-4.17c-.52,0-.95.4-1,.92,0,.04-.37,4.19-2.11,8.51-.21.51.04,1.1.55,1.3.12.05.25.07.37.07.4,0,.77-.24.93-.63,1.37-3.4,1.94-6.64,2.14-8.17h3.28c.76,0,1.44-.42,1.79-1.08.34-.66.3-1.45-.13-2.07Z"/></g><path d="m29,36c-.25,0-.51-.09-.7-.29-.39-.39-.4-1.03,0-1.42.29-.29.71-.37,1.07-.23.13.05.25.12.36.23.39.39.4,1.02,0,1.41-.2.2-.46.3-.72.3Z"/><path d="m29,36c-.25,0-.51-.09-.7-.29-.39-.39-.4-1.03,0-1.42.29-.29.71-.37,1.07-.23.13.05.25.12.36.23.39.39.4,1.02,0,1.41-.2.2-.46.3-.72.3Z"/><path d="m45.77,22.4c-.17-.2-.42-.33-.68-.35-.1,0-2.15-.17-4.75.23.2-4-1.02-7.36-1.09-7.56-.19-.51-.76-.78-1.27-.59-.04.02-1.04.38-2.4,1.12-.92.5-1.76,1.04-2.53,1.61-1.45-2.69-3.2-4.44-3.33-4.57-.39-.38-1.01-.38-1.4,0-.12.12-1.87,1.88-3.33,4.57-.77-.57-1.62-1.11-2.53-1.61-1.36-.75-2.36-1.11-2.4-1.13-.52-.19-1.08.08-1.27.59-.07.2-1.3,3.57-1.09,7.56-2.61-.4-4.65-.24-4.75-.23-.26.02-.51.15-.68.35s-.25.47-.23.73c.02.26.62,6.39,5.35,9.9,1.6,1.18,3.61,2.03,5.97,2.52.07.01.14.02.2.02.46,0,.88-.33.98-.8.11-.54-.24-1.07-.78-1.18-2.08-.43-3.82-1.16-5.18-2.16-2.92-2.18-4-5.68-4.37-7.42.89,0,2.24.06,3.73.34.2,1.07.52,2.16,1.01,3.22.28.6.61,1.18.97,1.72.19.29.51.44.83.44.19,0,.39-.06.56-.17.46-.31.58-.93.27-1.39-.3-.45-.58-.93-.81-1.44-1.79-3.83-.92-8.33-.39-10.3.33.15.72.35,1.15.58.96.53,1.84,1.1,2.62,1.7-.64,1.58-1.1,3.38-1.1,5.3,0,6.42,5.08,11.5,5.3,11.71.19.19.45.29.7.29s.51-.1.7-.29c.22-.21,5.3-5.29,5.3-11.71,0-1.92-.46-3.71-1.1-5.3.78-.61,1.66-1.18,2.62-1.71.43-.24.82-.43,1.15-.58.38,1.4.92,4.08.56,6.9,0,0,0,.01,0,.02-.15,1.13-.44,2.28-.95,3.38-.23.51-.51.99-.81,1.44-.31.46-.19,1.08.27,1.39.17.12.37.17.56.17.32,0,.64-.15.83-.44.36-.54.69-1.12.97-1.72.49-1.06.81-2.15,1.01-3.22,1.49-.27,2.84-.34,3.73-.34-.37,1.74-1.45,5.25-4.38,7.43-1.36,1.02-3.11,1.74-5.19,2.16-.54.11-.89.63-.78,1.18.1.48.51.8.98.8.06,0,.13,0,.2-.02,2.37-.47,4.39-1.32,5.99-2.52,4.73-3.52,5.33-9.64,5.35-9.9.02-.27-.06-.53-.23-.73Zm-16.77,11.11c-1.31-1.56-4-5.27-4-9.51s2.69-7.95,4-9.51c1.31,1.56,4,5.27,4,9.51s-2.69,7.95-4,9.51Z"/></svg>